<?xml version="1.0" encoding="UTF-8" standalone="no"?>
<!DOCTYPE svg PUBLIC "-//W3C//DTD SVG 1.1//EN"
 "http://www.w3.org/Graphics/SVG/1.1/DTD/svg11.dtd">
<!-- Generated by graphviz version 9.0.0 (20230911.1827)
 -->
<!-- Title: G Pages: 1 -->
<svg width="225pt" height="133pt"
 viewBox="0.00 0.00 224.69 132.50" xmlns="http://www.w3.org/2000/svg" xmlns:xlink="http://www.w3.org/1999/xlink">
<g id="graph0" class="graph" transform="scale(1 1) rotate(0) translate(4 128.5)">
<title>G</title>
<polygon fill="white" stroke="none" points="-4,4 -4,-128.5 220.69,-128.5 220.69,4 -4,4"/>
<!-- S_0 -->
<g id="node1" class="node">
<title>S_0</title>
<ellipse fill="none" stroke="black" cx="87.69" cy="-106.5" rx="87.69" ry="18"/>
<text text-anchor="middle" x="87.69" y="-101.45" font-family="Times,serif" font-size="14.00">TransactionManager</text>
</g>
<!-- S_1 -->
<g id="node2" class="node">
<title>S_1</title>
<ellipse fill="none" stroke="black" cx="87.69" cy="-18" rx="78.48" ry="18"/>
<text text-anchor="middle" x="87.69" y="-12.95" font-family="Times,serif" font-size="14.00">ResourceManager</text>
</g>
<!-- S_0&#45;&gt;S_1 -->
<g id="edge1" class="edge">
<title>S_0&#45;&gt;S_1</title>
<path fill="none" stroke="black" d="M55.73,-89.35C48.89,-84.3 42.56,-78.03 38.69,-70.5 33.29,-60 38.77,-50.15 47.76,-41.94"/>
<polygon fill="black" stroke="black" points="49.87,-44.73 55.59,-35.81 45.56,-39.21 49.87,-44.73"/>
<text text-anchor="middle" x="77.69" y="-57.2" font-family="Times,serif" font-size="14.00">commit, abort</text>
</g>
<!-- S_1&#45;&gt;S_0 -->
<g id="edge2" class="edge">
<title>S_1&#45;&gt;S_0</title>
<path fill="none" stroke="black" d="M105.72,-36C110.17,-41.29 114.33,-47.47 116.69,-54 119.18,-60.9 119.18,-63.6 116.69,-70.5 115.59,-73.56 114.08,-76.55 112.34,-79.4"/>
<polygon fill="black" stroke="black" points="109.66,-77.13 106.61,-87.28 115.32,-81.25 109.66,-77.13"/>
<text text-anchor="middle" x="167.19" y="-57.2" font-family="Times,serif" font-size="14.00">prepare, selfAbort</text>
</g>
</g>
</svg>
