<?xml version="1.0" encoding="UTF-8" standalone="no"?>
<!DOCTYPE svg PUBLIC "-//W3C//DTD SVG 1.1//EN"
 "http://www.w3.org/Graphics/SVG/1.1/DTD/svg11.dtd">
<!-- Generated by graphviz version 9.0.0 (20230911.1827)
 -->
<!-- Title: G Pages: 1 -->
<svg width="399pt" height="221pt"
 viewBox="0.00 0.00 399.23 221.00" xmlns="http://www.w3.org/2000/svg" xmlns:xlink="http://www.w3.org/1999/xlink">
<g id="graph0" class="graph" transform="scale(1 1) rotate(0) translate(4 217)">
<title>G</title>
<polygon fill="white" stroke="none" points="-4,4 -4,-217 395.23,-217 395.23,4 -4,4"/>
<!-- S_0 -->
<g id="node1" class="node">
<title>S_0</title>
<ellipse fill="none" stroke="black" cx="230.73" cy="-195" rx="55.96" ry="18"/>
<text text-anchor="middle" x="230.73" y="-189.95" font-family="Times,serif" font-size="14.00">WORKING</text>
</g>
<!-- S_1 -->
<g id="node2" class="node">
<title>S_1</title>
<ellipse fill="none" stroke="black" cx="175.73" cy="-106.5" rx="58" ry="18"/>
<text text-anchor="middle" x="175.73" y="-101.45" font-family="Times,serif" font-size="14.00">PREPARED</text>
</g>
<!-- S_0&#45;&gt;S_1 -->
<g id="edge1" class="edge">
<title>S_0&#45;&gt;S_1</title>
<path fill="none" stroke="black" d="M198.22,-180.02C189.74,-174.72 181.62,-167.79 176.73,-159 172.92,-152.15 171.6,-143.95 171.52,-136.13"/>
<polygon fill="black" stroke="black" points="175,-136.48 172.08,-126.29 168.01,-136.08 175,-136.48"/>
<text text-anchor="middle" x="224.73" y="-145.7" font-family="Times,serif" font-size="14.00">RM.prepare(TM)</text>
</g>
<!-- S_2 -->
<g id="node3" class="node">
<title>S_2</title>
<ellipse fill="none" stroke="black" cx="246.73" cy="-18" rx="54.42" ry="18"/>
<text text-anchor="middle" x="246.73" y="-12.95" font-family="Times,serif" font-size="14.00">ABORTED</text>
</g>
<!-- S_0&#45;&gt;S_2 -->
<g id="edge2" class="edge">
<title>S_0&#45;&gt;S_2</title>
<path fill="none" stroke="black" d="M256.24,-178.69C262.84,-173.36 269.11,-166.74 272.73,-159 292.52,-116.74 287.38,-98.31 272.73,-54 271.7,-50.9 270.29,-47.85 268.64,-44.93"/>
<polygon fill="black" stroke="black" points="271.68,-43.18 263.22,-36.81 265.86,-47.07 271.68,-43.18"/>
<text text-anchor="middle" x="337.98" y="-101.45" font-family="Times,serif" font-size="14.00">RM.selfAbort(TM)</text>
</g>
<!-- S_1&#45;&gt;S_2 -->
<g id="edge3" class="edge">
<title>S_1&#45;&gt;S_2</title>
<path fill="none" stroke="black" d="M177.07,-88.33C178.64,-77.58 182.06,-63.94 189.48,-54 193.73,-48.3 199.21,-43.33 205.09,-39.07"/>
<polygon fill="black" stroke="black" points="206.78,-42.14 213.27,-33.77 202.98,-36.27 206.78,-42.14"/>
<text text-anchor="middle" x="230.35" y="-57.2" font-family="Times,serif" font-size="14.00">TM.abort(RM)</text>
</g>
<!-- S_3 -->
<g id="node4" class="node">
<title>S_3</title>
<ellipse fill="none" stroke="black" cx="67.73" cy="-18" rx="67.73" ry="18"/>
<text text-anchor="middle" x="67.73" y="-12.95" font-family="Times,serif" font-size="14.00">COMMITTED</text>
</g>
<!-- S_1&#45;&gt;S_3 -->
<g id="edge4" class="edge">
<title>S_1&#45;&gt;S_3</title>
<path fill="none" stroke="black" d="M124.77,-97.51C107.84,-92.43 90.31,-84.11 78.48,-70.5 72.94,-64.13 70,-55.64 68.5,-47.4"/>
<polygon fill="black" stroke="black" points="72,-47.21 67.4,-37.66 65.05,-47.99 72,-47.21"/>
<text text-anchor="middle" x="126.85" y="-57.2" font-family="Times,serif" font-size="14.00">TM.commit(RM)</text>
</g>
</g>
</svg>
