<?xml version="1.0" encoding="UTF-8" standalone="no"?>
<!DOCTYPE svg PUBLIC "-//W3C//DTD SVG 1.1//EN"
 "http://www.w3.org/Graphics/SVG/1.1/DTD/svg11.dtd">
<!-- Generated by graphviz version 9.0.0 (20230911.1827)
 -->
<!-- Title: G Pages: 1 -->
<svg width="579pt" height="221pt"
 viewBox="0.00 0.00 578.98 221.00" xmlns="http://www.w3.org/2000/svg" xmlns:xlink="http://www.w3.org/1999/xlink">
<g id="graph0" class="graph" transform="scale(1 1) rotate(0) translate(4 217)">
<title>G</title>
<polygon fill="white" stroke="none" points="-4,4 -4,-217 574.98,-217 574.98,4 -4,4"/>
<!-- S_0 -->
<g id="node1" class="node">
<title>S_0</title>
<ellipse fill="none" stroke="black" cx="317.73" cy="-195" rx="55.96" ry="18"/>
<text text-anchor="middle" x="317.73" y="-189.95" font-family="Times,serif" font-size="14.00">WORKING</text>
</g>
<!-- S_1 -->
<g id="node2" class="node">
<title>S_1</title>
<ellipse fill="none" stroke="black" cx="233.73" cy="-106.5" rx="58" ry="18"/>
<text text-anchor="middle" x="233.73" y="-101.45" font-family="Times,serif" font-size="14.00">PREPARED</text>
</g>
<!-- S_0&#45;&gt;S_1 -->
<g id="edge1" class="edge">
<title>S_0&#45;&gt;S_1</title>
<path fill="none" stroke="black" d="M271.47,-184.74C257.43,-179.56 243.49,-171.51 234.98,-159 230.45,-152.34 228.95,-144 228.91,-135.98"/>
<polygon fill="black" stroke="black" points="232.39,-136.42 229.61,-126.2 225.41,-135.93 232.39,-136.42"/>
<text text-anchor="middle" x="311.6" y="-145.7" font-family="Times,serif" font-size="14.00">RmActor.prepare(TmActor)</text>
</g>
<!-- S_2 -->
<g id="node3" class="node">
<title>S_2</title>
<ellipse fill="none" stroke="black" cx="324.73" cy="-18" rx="54.42" ry="18"/>
<text text-anchor="middle" x="324.73" y="-12.95" font-family="Times,serif" font-size="14.00">ABORTED</text>
</g>
<!-- S_0&#45;&gt;S_2 -->
<g id="edge2" class="edge">
<title>S_0&#45;&gt;S_2</title>
<path fill="none" stroke="black" d="M359.22,-182.7C370.76,-177.44 381.98,-169.85 388.73,-159 413.38,-119.37 412.53,-94.14 388.73,-54 384.74,-47.27 378.94,-41.74 372.45,-37.24"/>
<polygon fill="black" stroke="black" points="374.24,-34.24 363.86,-32.12 370.66,-40.25 374.24,-34.24"/>
<text text-anchor="middle" x="488.85" y="-101.45" font-family="Times,serif" font-size="14.00">RmActor.selfAbort(TmActor)</text>
</g>
<!-- S_1&#45;&gt;S_2 -->
<g id="edge3" class="edge">
<title>S_1&#45;&gt;S_2</title>
<path fill="none" stroke="black" d="M234.76,-88C236.23,-77.12 239.69,-63.46 247.73,-54 254.58,-45.95 263.66,-39.66 273.18,-34.78"/>
<polygon fill="black" stroke="black" points="274.58,-37.98 282.22,-30.64 271.67,-31.62 274.58,-37.98"/>
<text text-anchor="middle" x="318.23" y="-57.2" font-family="Times,serif" font-size="14.00">TmActor.abort(RmActor)</text>
</g>
<!-- S_3 -->
<g id="node4" class="node">
<title>S_3</title>
<ellipse fill="none" stroke="black" cx="67.73" cy="-18" rx="67.73" ry="18"/>
<text text-anchor="middle" x="67.73" y="-12.95" font-family="Times,serif" font-size="14.00">COMMITTED</text>
</g>
<!-- S_1&#45;&gt;S_3 -->
<g id="edge4" class="edge">
<title>S_1&#45;&gt;S_3</title>
<path fill="none" stroke="black" d="M179.91,-99.54C140.98,-94.13 92.84,-84.77 78.73,-70.5 72.63,-64.33 69.54,-55.66 68.07,-47.19"/>
<polygon fill="black" stroke="black" points="71.58,-47.12 67.09,-37.52 64.62,-47.83 71.58,-47.12"/>
<text text-anchor="middle" x="156.73" y="-57.2" font-family="Times,serif" font-size="14.00">TmActor.commit(RmActor)</text>
</g>
</g>
</svg>
