<?xml version="1.0" encoding="UTF-8" standalone="no"?>
<!DOCTYPE svg PUBLIC "-//W3C//DTD SVG 1.1//EN"
 "http://www.w3.org/Graphics/SVG/1.1/DTD/svg11.dtd">
<!-- Generated by graphviz version 9.0.0 (20230911.1827)
 -->
<!-- Title: G Pages: 1 -->
<svg width="329pt" height="575pt"
 viewBox="0.00 0.00 328.73 575.00" xmlns="http://www.w3.org/2000/svg" xmlns:xlink="http://www.w3.org/1999/xlink">
<g id="graph0" class="graph" transform="scale(1 1) rotate(0) translate(4 571)">
<title>G</title>
<polygon fill="white" stroke="none" points="-4,4 -4,-571 324.73,-571 324.73,4 -4,4"/>
<!-- S_0 -->
<g id="node1" class="node">
<title>S_0</title>
<ellipse fill="none" stroke="black" cx="160.37" cy="-549" rx="160.37" ry="18"/>
<text text-anchor="middle" x="160.37" y="-543.95" font-family="Times,serif" font-size="14.00">jug3(occupancy=0), jug5(occupancy=0)</text>
</g>
<!-- S_5 -->
<g id="node2" class="node">
<title>S_5</title>
<ellipse fill="none" stroke="black" cx="160.37" cy="-460.5" rx="160.37" ry="18"/>
<text text-anchor="middle" x="160.37" y="-455.45" font-family="Times,serif" font-size="14.00">jug3(occupancy=0), jug5(occupancy=5)</text>
</g>
<!-- S_0&#45;&gt;S_5 -->
<g id="edge1" class="edge">
<title>S_0&#45;&gt;S_5</title>
<path fill="none" stroke="black" d="M160.37,-530.91C160.37,-519.26 160.37,-503.55 160.37,-490.02"/>
<polygon fill="black" stroke="black" points="163.87,-490.36 160.37,-480.36 156.87,-490.36 163.87,-490.36"/>
<text text-anchor="middle" x="186.62" y="-499.7" font-family="Times,serif" font-size="14.00">jug5.fill()</text>
</g>
<!-- S_18 -->
<g id="node3" class="node">
<title>S_18</title>
<ellipse fill="none" stroke="black" cx="160.37" cy="-372" rx="160.37" ry="18"/>
<text text-anchor="middle" x="160.37" y="-366.95" font-family="Times,serif" font-size="14.00">jug3(occupancy=3), jug5(occupancy=2)</text>
</g>
<!-- S_5&#45;&gt;S_18 -->
<g id="edge2" class="edge">
<title>S_5&#45;&gt;S_18</title>
<path fill="none" stroke="black" d="M160.37,-442.41C160.37,-430.76 160.37,-415.05 160.37,-401.52"/>
<polygon fill="black" stroke="black" points="163.87,-401.86 160.37,-391.86 156.87,-401.86 163.87,-401.86"/>
<text text-anchor="middle" x="207.99" y="-411.2" font-family="Times,serif" font-size="14.00">jug5.addTo(jug3)</text>
</g>
<!-- S_34 -->
<g id="node4" class="node">
<title>S_34</title>
<ellipse fill="none" stroke="black" cx="160.37" cy="-283.5" rx="160.37" ry="18"/>
<text text-anchor="middle" x="160.37" y="-278.45" font-family="Times,serif" font-size="14.00">jug3(occupancy=0), jug5(occupancy=2)</text>
</g>
<!-- S_18&#45;&gt;S_34 -->
<g id="edge3" class="edge">
<title>S_18&#45;&gt;S_34</title>
<path fill="none" stroke="black" d="M160.37,-353.91C160.37,-342.26 160.37,-326.55 160.37,-313.02"/>
<polygon fill="black" stroke="black" points="163.87,-313.36 160.37,-303.36 156.87,-313.36 163.87,-313.36"/>
<text text-anchor="middle" x="195.99" y="-322.7" font-family="Times,serif" font-size="14.00">jug3.empty()</text>
</g>
<!-- S_48 -->
<g id="node5" class="node">
<title>S_48</title>
<ellipse fill="none" stroke="black" cx="160.37" cy="-195" rx="160.37" ry="18"/>
<text text-anchor="middle" x="160.37" y="-189.95" font-family="Times,serif" font-size="14.00">jug3(occupancy=2), jug5(occupancy=0)</text>
</g>
<!-- S_34&#45;&gt;S_48 -->
<g id="edge4" class="edge">
<title>S_34&#45;&gt;S_48</title>
<path fill="none" stroke="black" d="M160.37,-265.41C160.37,-253.76 160.37,-238.05 160.37,-224.52"/>
<polygon fill="black" stroke="black" points="163.87,-224.86 160.37,-214.86 156.87,-224.86 163.87,-224.86"/>
<text text-anchor="middle" x="207.99" y="-234.2" font-family="Times,serif" font-size="14.00">jug5.addTo(jug3)</text>
</g>
<!-- S_56 -->
<g id="node6" class="node">
<title>S_56</title>
<ellipse fill="none" stroke="black" cx="160.37" cy="-106.5" rx="160.37" ry="18"/>
<text text-anchor="middle" x="160.37" y="-101.45" font-family="Times,serif" font-size="14.00">jug3(occupancy=2), jug5(occupancy=5)</text>
</g>
<!-- S_48&#45;&gt;S_56 -->
<g id="edge5" class="edge">
<title>S_48&#45;&gt;S_56</title>
<path fill="none" stroke="black" d="M160.37,-176.91C160.37,-165.26 160.37,-149.55 160.37,-136.02"/>
<polygon fill="black" stroke="black" points="163.87,-136.36 160.37,-126.36 156.87,-136.36 163.87,-136.36"/>
<text text-anchor="middle" x="186.62" y="-145.7" font-family="Times,serif" font-size="14.00">jug5.fill()</text>
</g>
<!-- S_72 -->
<g id="node7" class="node">
<title>S_72</title>
<ellipse fill="none" stroke="black" cx="160.37" cy="-18" rx="160.37" ry="18"/>
<text text-anchor="middle" x="160.37" y="-12.95" font-family="Times,serif" font-size="14.00">jug3(occupancy=3), jug5(occupancy=4)</text>
</g>
<!-- S_56&#45;&gt;S_72 -->
<g id="edge6" class="edge">
<title>S_56&#45;&gt;S_72</title>
<path fill="none" stroke="black" d="M160.37,-88.41C160.37,-76.76 160.37,-61.05 160.37,-47.52"/>
<polygon fill="black" stroke="black" points="163.87,-47.86 160.37,-37.86 156.87,-47.86 163.87,-47.86"/>
<text text-anchor="middle" x="207.99" y="-57.2" font-family="Times,serif" font-size="14.00">jug5.addTo(jug3)</text>
</g>
</g>
</svg>
