<?xml version="1.0" encoding="UTF-8" standalone="no"?>
<!DOCTYPE svg PUBLIC "-//W3C//DTD SVG 1.1//EN"
 "http://www.w3.org/Graphics/SVG/1.1/DTD/svg11.dtd">
<!-- Generated by graphviz version 9.0.0 (20230911.1827)
 -->
<!-- Title: G Pages: 1 -->
<svg width="2020pt" height="1018pt"
 viewBox="0.00 0.00 2020.37 1017.50" xmlns="http://www.w3.org/2000/svg" xmlns:xlink="http://www.w3.org/1999/xlink">
<g id="graph0" class="graph" transform="scale(1 1) rotate(0) translate(4 1013.5)">
<title>G</title>
<polygon fill="white" stroke="none" points="-4,4 -4,-1013.5 2016.37,-1013.5 2016.37,4 -4,4"/>
<!-- S_48 -->
<g id="node1" class="node">
<title>S_48</title>
<ellipse fill="none" stroke="black" cx="954" cy="-991.5" rx="160.37" ry="18"/>
<text text-anchor="middle" x="954" y="-986.45" font-family="Times,serif" font-size="14.00">jug3(occupancy=2), jug5(occupancy=0)</text>
</g>
<!-- S_48&#45;&gt;S_48 -->
<g id="edge13" class="edge">
<title>S_48&#45;&gt;S_48</title>
<path fill="none" stroke="black" d="M1112.29,-994.64C1124.7,-993.95 1132.37,-992.9 1132.37,-991.5 1132.37,-990.6 1129.22,-989.85 1123.7,-989.24"/>
<polygon fill="black" stroke="black" points="1124.04,-985.76 1113.8,-988.47 1123.5,-992.74 1124.04,-985.76"/>
<text text-anchor="middle" x="1179.99" y="-986.45" font-family="Times,serif" font-size="14.00">jug5.addTo(jug3)</text>
</g>
<!-- S_48&#45;&gt;S_48 -->
<g id="edge39" class="edge">
<title>S_48&#45;&gt;S_48</title>
<path fill="none" stroke="black" d="M1097.88,-999.72C1165.14,-1000.3 1227.62,-997.56 1227.62,-991.5 1227.62,-985.78 1172.02,-983.02 1109.25,-983.21"/>
<polygon fill="black" stroke="black" points="1109.37,-979.71 1099.39,-983.27 1109.41,-986.71 1109.37,-979.71"/>
<text text-anchor="middle" x="1263.24" y="-986.45" font-family="Times,serif" font-size="14.00">jug5.empty()</text>
</g>
<!-- S_34 -->
<g id="node2" class="node">
<title>S_34</title>
<ellipse fill="none" stroke="black" cx="175" cy="-903" rx="160.37" ry="18"/>
<text text-anchor="middle" x="175" y="-897.95" font-family="Times,serif" font-size="14.00">jug3(occupancy=0), jug5(occupancy=2)</text>
</g>
<!-- S_48&#45;&gt;S_34 -->
<g id="edge1" class="edge">
<title>S_48&#45;&gt;S_34</title>
<path fill="none" stroke="black" d="M799.88,-986.28C646.05,-981.26 420.56,-971.48 334.75,-955.5 298.11,-948.67 258.2,-935.81 227.43,-924.65"/>
<polygon fill="black" stroke="black" points="228.97,-921.48 218.37,-921.31 226.54,-928.05 228.97,-921.48"/>
<text text-anchor="middle" x="382.62" y="-942.2" font-family="Times,serif" font-size="14.00">jug3.addTo(jug5)</text>
</g>
<!-- S_0 -->
<g id="node5" class="node">
<title>S_0</title>
<ellipse fill="none" stroke="black" cx="539" cy="-106.5" rx="160.37" ry="18"/>
<text text-anchor="middle" x="539" y="-101.45" font-family="Times,serif" font-size="14.00">jug3(occupancy=0), jug5(occupancy=0)</text>
</g>
<!-- S_48&#45;&gt;S_0 -->
<g id="edge58" class="edge">
<title>S_48&#45;&gt;S_0</title>
<path fill="none" stroke="black" d="M925.56,-973.41C864.6,-937.28 716.11,-851.88 584,-796.5 559.89,-786.39 551.32,-790.32 528,-778.5 468.26,-748.21 454.9,-735.78 406,-690 354.1,-641.42 331.54,-632.43 303.75,-567 293.04,-541.79 297,-533.14 297,-505.75 297,-505.75 297,-505.75 297,-194 297,-161.88 373.55,-138.53 440.55,-124.24"/>
<polygon fill="black" stroke="black" points="441.07,-127.71 450.15,-122.25 439.65,-120.85 441.07,-127.71"/>
<text text-anchor="middle" x="339.62" y="-543.95" font-family="Times,serif" font-size="14.00">jug3.empty()</text>
</g>
<!-- S_2 -->
<g id="node7" class="node">
<title>S_2</title>
<ellipse fill="none" stroke="black" cx="871" cy="-637.5" rx="160.37" ry="18"/>
<text text-anchor="middle" x="871" y="-632.45" font-family="Times,serif" font-size="14.00">jug3(occupancy=3), jug5(occupancy=0)</text>
</g>
<!-- S_48&#45;&gt;S_2 -->
<g id="edge5" class="edge">
<title>S_48&#45;&gt;S_2</title>
<path fill="none" stroke="black" d="M980.33,-973.46C1038.16,-936.67 1181.49,-848.89 1311.5,-796.5 1398.09,-761.61 1564.3,-777.53 1502,-708 1471,-673.39 1207.04,-654.22 1030.48,-645.17"/>
<polygon fill="black" stroke="black" points="1030.92,-641.69 1020.76,-644.68 1030.57,-648.68 1030.92,-641.69"/>
<text text-anchor="middle" x="1337.25" y="-809.45" font-family="Times,serif" font-size="14.00">jug3.fill()</text>
</g>
<!-- S_56 -->
<g id="node13" class="node">
<title>S_56</title>
<ellipse fill="none" stroke="black" cx="1499" cy="-903" rx="160.37" ry="18"/>
<text text-anchor="middle" x="1499" y="-897.95" font-family="Times,serif" font-size="14.00">jug3(occupancy=2), jug5(occupancy=5)</text>
</g>
<!-- S_48&#45;&gt;S_56 -->
<g id="edge70" class="edge">
<title>S_48&#45;&gt;S_56</title>
<path fill="none" stroke="black" d="M1098.51,-983.39C1167.52,-978.34 1251,-969.8 1325,-955.5 1330.67,-954.4 1386.89,-937.68 1433.92,-923.58"/>
<polygon fill="black" stroke="black" points="1434.69,-927 1443.26,-920.78 1432.68,-920.3 1434.69,-927"/>
<text text-anchor="middle" x="1406.25" y="-942.2" font-family="Times,serif" font-size="14.00">jug5.fill()</text>
</g>
<!-- S_34&#45;&gt;S_48 -->
<g id="edge10" class="edge">
<title>S_34&#45;&gt;S_48</title>
<path fill="none" stroke="black" d="M285.92,-916.36C330.85,-922.11 383.09,-929.74 430,-939 458.71,-944.67 464.88,-950.7 493.75,-955.5 591.26,-971.69 701.65,-980.41 789.87,-985.09"/>
<polygon fill="black" stroke="black" points="789.66,-988.58 799.83,-985.61 790.02,-981.59 789.66,-988.58"/>
<text text-anchor="middle" x="540.62" y="-942.2" font-family="Times,serif" font-size="14.00">jug5.addTo(jug3)</text>
</g>
<!-- S_34&#45;&gt;S_34 -->
<g id="edge7" class="edge">
<title>S_34&#45;&gt;S_34</title>
<path fill="none" stroke="black" d="M333.29,-906.14C345.7,-905.45 353.37,-904.4 353.37,-903 353.37,-902.1 350.22,-901.35 344.7,-900.74"/>
<polygon fill="black" stroke="black" points="345.04,-897.26 334.8,-899.97 344.5,-904.24 345.04,-897.26"/>
<text text-anchor="middle" x="400.99" y="-897.95" font-family="Times,serif" font-size="14.00">jug3.addTo(jug5)</text>
</g>
<!-- S_34&#45;&gt;S_34 -->
<g id="edge83" class="edge">
<title>S_34&#45;&gt;S_34</title>
<path fill="none" stroke="black" d="M318.88,-911.22C386.14,-911.8 448.62,-909.06 448.62,-903 448.62,-897.28 393.02,-894.52 330.25,-894.71"/>
<polygon fill="black" stroke="black" points="330.37,-891.21 320.39,-894.77 330.41,-898.21 330.37,-891.21"/>
<text text-anchor="middle" x="484.24" y="-897.95" font-family="Times,serif" font-size="14.00">jug3.empty()</text>
</g>
<!-- S_34&#45;&gt;S_0 -->
<g id="edge49" class="edge">
<title>S_34&#45;&gt;S_0</title>
<path fill="none" stroke="black" d="M126.68,-885.37C102.66,-874.38 75.88,-857.33 62,-832.5 54.19,-818.53 58,-811.99 62,-796.5 86.79,-700.58 127.61,-691.05 170,-601.5 191.49,-556.11 190.17,-541.85 211.75,-496.5 227.5,-463.4 241.47,-459.62 252,-424.5 264.26,-383.63 259,-371.42 259,-328.75 259,-328.75 259,-328.75 259,-194 259,-168.75 262.67,-157.48 283,-142.5 300.47,-129.62 341.33,-121.47 385.4,-116.32"/>
<polygon fill="black" stroke="black" points="385.6,-119.82 395.15,-115.25 384.83,-112.87 385.6,-119.82"/>
<text text-anchor="middle" x="247.62" y="-499.7" font-family="Times,serif" font-size="14.00">jug5.empty()</text>
</g>
<!-- S_5 -->
<g id="node9" class="node">
<title>S_5</title>
<ellipse fill="none" stroke="black" cx="445" cy="-18" rx="160.37" ry="18"/>
<text text-anchor="middle" x="445" y="-12.95" font-family="Times,serif" font-size="14.00">jug3(occupancy=0), jug5(occupancy=5)</text>
</g>
<!-- S_34&#45;&gt;S_5 -->
<g id="edge76" class="edge">
<title>S_34&#45;&gt;S_5</title>
<path fill="none" stroke="black" d="M76.76,-888.41C36.87,-876.81 0,-855.32 0,-815.5 0,-815.5 0,-815.5 0,-105.5 0,-47.2 149.04,-27.41 274.61,-21.08"/>
<polygon fill="black" stroke="black" points="274.58,-24.59 284.4,-20.61 274.25,-17.59 274.58,-24.59"/>
<text text-anchor="middle" x="26.25" y="-455.45" font-family="Times,serif" font-size="14.00">jug5.fill()</text>
</g>
<!-- S_18 -->
<g id="node12" class="node">
<title>S_18</title>
<ellipse fill="none" stroke="black" cx="231" cy="-814.5" rx="160.37" ry="18"/>
<text text-anchor="middle" x="231" y="-809.45" font-family="Times,serif" font-size="14.00">jug3(occupancy=3), jug5(occupancy=2)</text>
</g>
<!-- S_34&#45;&gt;S_18 -->
<g id="edge15" class="edge">
<title>S_34&#45;&gt;S_18</title>
<path fill="none" stroke="black" d="M210.83,-885C217.61,-880.14 223.87,-874.17 228,-867 231.92,-860.2 233.51,-852.02 233.9,-844.2"/>
<polygon fill="black" stroke="black" points="237.4,-844.29 233.75,-834.35 230.4,-844.4 237.4,-844.29"/>
<text text-anchor="middle" x="260.25" y="-853.7" font-family="Times,serif" font-size="14.00">jug3.fill()</text>
</g>
<!-- S_9 -->
<g id="node3" class="node">
<title>S_9</title>
<ellipse fill="none" stroke="black" cx="834" cy="-549" rx="160.37" ry="18"/>
<text text-anchor="middle" x="834" y="-543.95" font-family="Times,serif" font-size="14.00">jug3(occupancy=0), jug5(occupancy=3)</text>
</g>
<!-- S_9&#45;&gt;S_9 -->
<g id="edge34" class="edge">
<title>S_9&#45;&gt;S_9</title>
<path fill="none" stroke="black" d="M992.29,-552.14C1004.7,-551.45 1012.37,-550.4 1012.37,-549 1012.37,-548.1 1009.22,-547.35 1003.7,-546.74"/>
<polygon fill="black" stroke="black" points="1004.04,-543.26 993.8,-545.97 1003.5,-550.24 1004.04,-543.26"/>
<text text-anchor="middle" x="1047.99" y="-543.95" font-family="Times,serif" font-size="14.00">jug3.empty()</text>
</g>
<!-- S_9&#45;&gt;S_9 -->
<g id="edge77" class="edge">
<title>S_9&#45;&gt;S_9</title>
<path fill="none" stroke="black" d="M977.61,-557.29C1034.28,-557.49 1083.62,-554.73 1083.62,-549 1083.62,-543.67 1040.8,-540.9 989.11,-540.71"/>
<polygon fill="black" stroke="black" points="989.12,-537.21 979.12,-540.71 989.12,-544.21 989.12,-537.21"/>
<text text-anchor="middle" x="1131.24" y="-543.95" font-family="Times,serif" font-size="14.00">jug3.addTo(jug5)</text>
</g>
<!-- S_29 -->
<g id="node4" class="node">
<title>S_29</title>
<ellipse fill="none" stroke="black" cx="1011" cy="-460.5" rx="160.37" ry="18"/>
<text text-anchor="middle" x="1011" y="-455.45" font-family="Times,serif" font-size="14.00">jug3(occupancy=3), jug5(occupancy=3)</text>
</g>
<!-- S_9&#45;&gt;S_29 -->
<g id="edge2" class="edge">
<title>S_9&#45;&gt;S_29</title>
<path fill="none" stroke="black" d="M913.88,-532.95C930.13,-528.01 946.63,-521.51 961,-513 972.21,-506.36 982.61,-496.55 990.98,-487.27"/>
<polygon fill="black" stroke="black" points="993.53,-489.68 997.37,-479.8 988.21,-485.13 993.53,-489.68"/>
<text text-anchor="middle" x="1007.25" y="-499.7" font-family="Times,serif" font-size="14.00">jug3.fill()</text>
</g>
<!-- S_9&#45;&gt;S_0 -->
<g id="edge21" class="edge">
<title>S_9&#45;&gt;S_0</title>
<path fill="none" stroke="black" d="M788,-531.41C759,-517.68 727,-494.94 727,-461.5 727,-461.5 727,-461.5 727,-194 727,-156.56 695.85,-135.27 658.91,-123.18"/>
<polygon fill="black" stroke="black" points="660.39,-119.97 649.81,-120.45 658.38,-126.68 660.39,-119.97"/>
<text text-anchor="middle" x="762.62" y="-322.7" font-family="Times,serif" font-size="14.00">jug5.empty()</text>
</g>
<!-- S_9&#45;&gt;S_2 -->
<g id="edge54" class="edge">
<title>S_9&#45;&gt;S_2</title>
<path fill="none" stroke="black" d="M871.76,-566.78C878.67,-571.64 884.97,-577.66 889,-585 893.07,-592.42 892.11,-600.94 889.13,-608.88"/>
<polygon fill="black" stroke="black" points="886,-607.31 884.76,-617.84 892.29,-610.38 886,-607.31"/>
<text text-anchor="middle" x="938.62" y="-588.2" font-family="Times,serif" font-size="14.00">jug5.addTo(jug3)</text>
</g>
<!-- S_9&#45;&gt;S_5 -->
<g id="edge69" class="edge">
<title>S_9&#45;&gt;S_5</title>
<path fill="none" stroke="black" d="M827.24,-530.74C821.1,-513.49 813,-486.07 813,-461.5 813,-461.5 813,-461.5 813,-238.25 813,-188.95 823.23,-160.82 869,-142.5 972.12,-101.23 1187.36,-171 1113,-88.5 1079.72,-51.58 794.41,-33.01 607.58,-24.72"/>
<polygon fill="black" stroke="black" points="607.91,-21.23 597.76,-24.29 607.6,-28.23 607.91,-21.23"/>
<text text-anchor="middle" x="839.25" y="-278.45" font-family="Times,serif" font-size="14.00">jug5.fill()</text>
</g>
<!-- S_29&#45;&gt;S_9 -->
<g id="edge38" class="edge">
<title>S_29&#45;&gt;S_9</title>
<path fill="none" stroke="black" d="M932.98,-476.66C916.74,-481.61 900.18,-488.09 885.75,-496.5 874.18,-503.24 863.35,-513.19 854.61,-522.55"/>
<polygon fill="black" stroke="black" points="852.25,-519.94 848.22,-529.74 857.48,-524.59 852.25,-519.94"/>
<text text-anchor="middle" x="920.62" y="-499.7" font-family="Times,serif" font-size="14.00">jug3.empty()</text>
</g>
<!-- S_29&#45;&gt;S_29 -->
<g id="edge50" class="edge">
<title>S_29&#45;&gt;S_29</title>
<path fill="none" stroke="black" d="M1169.29,-463.64C1181.7,-462.95 1189.37,-461.9 1189.37,-460.5 1189.37,-459.6 1186.22,-458.85 1180.7,-458.24"/>
<polygon fill="black" stroke="black" points="1181.04,-454.76 1170.8,-457.47 1180.5,-461.74 1181.04,-454.76"/>
<text text-anchor="middle" x="1215.62" y="-455.45" font-family="Times,serif" font-size="14.00">jug3.fill()</text>
</g>
<!-- S_29&#45;&gt;S_29 -->
<g id="edge64" class="edge">
<title>S_29&#45;&gt;S_29</title>
<path fill="none" stroke="black" d="M1154.74,-468.79C1202.59,-468.65 1241.87,-465.89 1241.87,-460.5 1241.87,-455.54 1208.63,-452.8 1166.05,-452.29"/>
<polygon fill="black" stroke="black" points="1166.27,-448.79 1156.25,-452.22 1166.22,-455.79 1166.27,-448.79"/>
<text text-anchor="middle" x="1289.49" y="-455.45" font-family="Times,serif" font-size="14.00">jug5.addTo(jug3)</text>
</g>
<!-- S_39 -->
<g id="node6" class="node">
<title>S_39</title>
<ellipse fill="none" stroke="black" cx="1028" cy="-372" rx="160.37" ry="18"/>
<text text-anchor="middle" x="1028" y="-366.95" font-family="Times,serif" font-size="14.00">jug3(occupancy=1), jug5(occupancy=5)</text>
</g>
<!-- S_29&#45;&gt;S_39 -->
<g id="edge4" class="edge">
<title>S_29&#45;&gt;S_39</title>
<path fill="none" stroke="black" d="M1040.63,-442.7C1046.82,-437.7 1052.52,-431.61 1056,-424.5 1060.07,-416.18 1057.71,-407.27 1052.97,-399.24"/>
<polygon fill="black" stroke="black" points="1055.87,-397.26 1047.18,-391.2 1050.19,-401.36 1055.87,-397.26"/>
<text text-anchor="middle" x="1105.62" y="-411.2" font-family="Times,serif" font-size="14.00">jug3.addTo(jug5)</text>
</g>
<!-- S_29&#45;&gt;S_2 -->
<g id="edge29" class="edge">
<title>S_29&#45;&gt;S_2</title>
<path fill="none" stroke="black" d="M1095.69,-476.2C1164.23,-491.81 1243.66,-520.73 1206,-567 1180.98,-597.75 1090.98,-615.32 1010.57,-625.11"/>
<polygon fill="black" stroke="black" points="1010.32,-621.61 1000.8,-626.26 1011.14,-628.56 1010.32,-621.61"/>
<text text-anchor="middle" x="1250.62" y="-543.95" font-family="Times,serif" font-size="14.00">jug5.empty()</text>
</g>
<!-- S_11 -->
<g id="node14" class="node">
<title>S_11</title>
<ellipse fill="none" stroke="black" cx="965" cy="-726" rx="160.37" ry="18"/>
<text text-anchor="middle" x="965" y="-720.95" font-family="Times,serif" font-size="14.00">jug3(occupancy=3), jug5(occupancy=5)</text>
</g>
<!-- S_29&#45;&gt;S_11 -->
<g id="edge23" class="edge">
<title>S_29&#45;&gt;S_11</title>
<path fill="none" stroke="black" d="M1112.36,-474.85C1181.95,-486.15 1265.93,-504.73 1290,-531 1311.36,-554.31 1335.07,-628.59 1313,-655.5 1286.83,-687.42 1192.73,-704.96 1108.97,-714.44"/>
<polygon fill="black" stroke="black" points="1108.82,-710.93 1099.26,-715.5 1109.58,-717.89 1108.82,-710.93"/>
<text text-anchor="middle" x="1345.25" y="-588.2" font-family="Times,serif" font-size="14.00">jug5.fill()</text>
</g>
<!-- S_0&#45;&gt;S_0 -->
<g id="edge3" class="edge">
<title>S_0&#45;&gt;S_0</title>
<path fill="none" stroke="black" d="M699.25,-108.01C710.5,-107.67 717.37,-107.16 717.37,-106.5 717.37,-106.11 714.95,-105.77 710.63,-105.49"/>
<polygon fill="black" stroke="black" points="710.91,-101.99 700.76,-105.05 710.6,-108.99 710.91,-101.99"/>
<text text-anchor="middle" x="764.99" y="-101.45" font-family="Times,serif" font-size="14.00">jug3.addTo(jug5)</text>
</g>
<!-- S_0&#45;&gt;S_0 -->
<g id="edge33" class="edge">
<title>S_0&#45;&gt;S_0</title>
<path fill="none" stroke="black" d="M695.75,-110.65C757.9,-110.72 812.62,-109.34 812.62,-106.5 812.62,-103.84 764.33,-102.45 706.95,-102.36"/>
<polygon fill="black" stroke="black" points="707.27,-98.86 697.27,-102.35 707.26,-105.86 707.27,-98.86"/>
<text text-anchor="middle" x="848.24" y="-101.45" font-family="Times,serif" font-size="14.00">jug5.empty()</text>
</g>
<!-- S_0&#45;&gt;S_0 -->
<g id="edge46" class="edge">
<title>S_0&#45;&gt;S_0</title>
<path fill="none" stroke="black" d="M690.99,-112.47C785.25,-113.47 883.87,-111.48 883.87,-106.5 883.87,-101.72 792.99,-99.69 702.32,-100.42"/>
<polygon fill="black" stroke="black" points="702.47,-96.92 692.5,-100.52 702.53,-103.92 702.47,-96.92"/>
<text text-anchor="middle" x="931.49" y="-101.45" font-family="Times,serif" font-size="14.00">jug5.addTo(jug3)</text>
</g>
<!-- S_0&#45;&gt;S_0 -->
<g id="edge74" class="edge">
<title>S_0&#45;&gt;S_0</title>
<path fill="none" stroke="black" d="M686.48,-113.86C817.07,-116.35 979.12,-113.89 979.12,-106.5 979.12,-99.31 826.12,-96.8 697.65,-98.95"/>
<polygon fill="black" stroke="black" points="697.93,-95.44 687.99,-99.12 698.05,-102.44 697.93,-95.44"/>
<text text-anchor="middle" x="1014.74" y="-101.45" font-family="Times,serif" font-size="14.00">jug3.empty()</text>
</g>
<!-- S_0&#45;&gt;S_2 -->
<g id="edge80" class="edge">
<title>S_0&#45;&gt;S_2</title>
<path fill="none" stroke="black" d="M585,-124.09C614,-137.82 646,-160.56 646,-194 646,-550 646,-550 646,-550 646,-580.3 717.99,-604 780.53,-618.87"/>
<polygon fill="black" stroke="black" points="779.67,-622.26 790.2,-621.11 781.25,-615.44 779.67,-622.26"/>
<text text-anchor="middle" x="672.25" y="-366.95" font-family="Times,serif" font-size="14.00">jug3.fill()</text>
</g>
<!-- S_0&#45;&gt;S_5 -->
<g id="edge75" class="edge">
<title>S_0&#45;&gt;S_5</title>
<path fill="none" stroke="black" d="M535.04,-88.47C531.76,-77.51 526.12,-63.58 517,-54 512.46,-49.23 507.13,-45.02 501.46,-41.34"/>
<polygon fill="black" stroke="black" points="503.38,-38.41 492.98,-36.39 499.85,-44.46 503.38,-38.41"/>
<text text-anchor="middle" x="554.25" y="-57.2" font-family="Times,serif" font-size="14.00">jug5.fill()</text>
</g>
<!-- S_39&#45;&gt;S_29 -->
<g id="edge6" class="edge">
<title>S_39&#45;&gt;S_29</title>
<path fill="none" stroke="black" d="M976.46,-389.46C968.62,-394.21 961.56,-400.28 956.75,-408 950.38,-418.23 955.76,-427.81 965.2,-435.87"/>
<polygon fill="black" stroke="black" points="962.99,-438.59 973.14,-441.65 967.11,-432.93 962.99,-438.59"/>
<text text-anchor="middle" x="1003.62" y="-411.2" font-family="Times,serif" font-size="14.00">jug5.addTo(jug3)</text>
</g>
<!-- S_39&#45;&gt;S_39 -->
<g id="edge32" class="edge">
<title>S_39&#45;&gt;S_39</title>
<path fill="none" stroke="black" d="M1186.29,-375.14C1198.7,-374.45 1206.37,-373.4 1206.37,-372 1206.37,-371.1 1203.22,-370.35 1197.7,-369.74"/>
<polygon fill="black" stroke="black" points="1198.04,-366.26 1187.8,-368.97 1197.5,-373.24 1198.04,-366.26"/>
<text text-anchor="middle" x="1253.99" y="-366.95" font-family="Times,serif" font-size="14.00">jug3.addTo(jug5)</text>
</g>
<!-- S_39&#45;&gt;S_39 -->
<g id="edge36" class="edge">
<title>S_39&#45;&gt;S_39</title>
<path fill="none" stroke="black" d="M1171.88,-380.22C1239.14,-380.8 1301.62,-378.06 1301.62,-372 1301.62,-366.28 1246.02,-363.52 1183.25,-363.71"/>
<polygon fill="black" stroke="black" points="1183.37,-360.21 1173.39,-363.77 1183.41,-367.21 1183.37,-360.21"/>
<text text-anchor="middle" x="1327.87" y="-366.95" font-family="Times,serif" font-size="14.00">jug5.fill()</text>
</g>
<!-- S_39&#45;&gt;S_5 -->
<g id="edge78" class="edge">
<title>S_39&#45;&gt;S_5</title>
<path fill="none" stroke="black" d="M1012.52,-353.86C1001.57,-340.6 987.69,-321.23 981,-301.5 963.21,-249.05 940.87,-220.02 975.75,-177 1000.14,-146.92 1023.97,-170.33 1061,-159 1099.99,-147.07 1123.23,-158.32 1146,-124.5 1163.5,-98.51 1167.6,-76.7 1146,-54 1127.89,-34.96 815.94,-25.69 614.34,-21.67"/>
<polygon fill="black" stroke="black" points="614.61,-18.17 604.54,-21.47 614.47,-25.17 614.61,-18.17"/>
<text text-anchor="middle" x="1010.62" y="-189.95" font-family="Times,serif" font-size="14.00">jug3.empty()</text>
</g>
<!-- S_49 -->
<g id="node11" class="node">
<title>S_49</title>
<ellipse fill="none" stroke="black" cx="1150" cy="-283.5" rx="160.37" ry="18"/>
<text text-anchor="middle" x="1150" y="-278.45" font-family="Times,serif" font-size="14.00">jug3(occupancy=1), jug5(occupancy=0)</text>
</g>
<!-- S_39&#45;&gt;S_49 -->
<g id="edge51" class="edge">
<title>S_39&#45;&gt;S_49</title>
<path fill="none" stroke="black" d="M1029.27,-353.65C1030.97,-342.55 1034.86,-328.59 1043.75,-319.5 1049.45,-313.68 1056.13,-308.83 1063.32,-304.78"/>
<polygon fill="black" stroke="black" points="1064.66,-308.02 1072.04,-300.42 1061.53,-301.76 1064.66,-308.02"/>
<text text-anchor="middle" x="1078.62" y="-322.7" font-family="Times,serif" font-size="14.00">jug5.empty()</text>
</g>
<!-- S_39&#45;&gt;S_11 -->
<g id="edge55" class="edge">
<title>S_39&#45;&gt;S_11</title>
<path fill="none" stroke="black" d="M1156.04,-383.18C1301.52,-396.52 1519,-422.63 1519,-459.5 1519,-638.5 1519,-638.5 1519,-638.5 1519,-679.48 1279.33,-703.97 1115.27,-715.94"/>
<polygon fill="black" stroke="black" points="1115.32,-712.43 1105.59,-716.63 1115.82,-719.41 1115.32,-712.43"/>
<text text-anchor="middle" x="1545.25" y="-543.95" font-family="Times,serif" font-size="14.00">jug3.fill()</text>
</g>
<!-- S_2&#45;&gt;S_9 -->
<g id="edge24" class="edge">
<title>S_2&#45;&gt;S_9</title>
<path fill="none" stroke="black" d="M814.44,-620.33C806.24,-615.57 798.86,-609.42 793.75,-601.5 787.94,-592.49 791.9,-583.11 799.22,-574.87"/>
<polygon fill="black" stroke="black" points="801.49,-577.53 806.31,-568.1 796.66,-572.47 801.49,-577.53"/>
<text text-anchor="middle" x="840.62" y="-588.2" font-family="Times,serif" font-size="14.00">jug3.addTo(jug5)</text>
</g>
<!-- S_2&#45;&gt;S_0 -->
<g id="edge68" class="edge">
<title>S_2&#45;&gt;S_0</title>
<path fill="none" stroke="black" d="M741.69,-626.62C648.47,-615.8 539,-593.78 539,-550 539,-550 539,-550 539,-194 539,-174.67 539,-152.9 539,-136.04"/>
<polygon fill="black" stroke="black" points="542.5,-136.25 539,-126.25 535.5,-136.25 542.5,-136.25"/>
<text text-anchor="middle" x="574.62" y="-366.95" font-family="Times,serif" font-size="14.00">jug3.empty()</text>
</g>
<!-- S_2&#45;&gt;S_2 -->
<g id="edge53" class="edge">
<title>S_2&#45;&gt;S_2</title>
<path fill="none" stroke="black" d="M1030.7,-639.54C1042.28,-639.08 1049.37,-638.4 1049.37,-637.5 1049.37,-636.95 1046.73,-636.48 1042.06,-636.1"/>
<polygon fill="black" stroke="black" points="1042.39,-632.61 1032.21,-635.54 1042,-639.6 1042.39,-632.61"/>
<text text-anchor="middle" x="1096.99" y="-632.45" font-family="Times,serif" font-size="14.00">jug5.addTo(jug3)</text>
</g>
<!-- S_2&#45;&gt;S_2 -->
<g id="edge67" class="edge">
<title>S_2&#45;&gt;S_2</title>
<path fill="none" stroke="black" d="M1024.19,-643.02C1087.8,-643.19 1144.62,-641.35 1144.62,-637.5 1144.62,-633.88 1094.47,-632.04 1035.66,-631.97"/>
<polygon fill="black" stroke="black" points="1035.7,-628.47 1025.71,-631.98 1035.71,-635.47 1035.7,-628.47"/>
<text text-anchor="middle" x="1170.87" y="-632.45" font-family="Times,serif" font-size="14.00">jug3.fill()</text>
</g>
<!-- S_2&#45;&gt;S_2 -->
<g id="edge71" class="edge">
<title>S_2&#45;&gt;S_2</title>
<path fill="none" stroke="black" d="M1015.97,-645.45C1104.96,-646.81 1197.12,-644.15 1197.12,-637.5 1197.12,-631.13 1112.71,-628.43 1027.45,-629.39"/>
<polygon fill="black" stroke="black" points="1027.43,-625.89 1017.48,-629.53 1027.53,-632.89 1027.43,-625.89"/>
<text text-anchor="middle" x="1232.74" y="-632.45" font-family="Times,serif" font-size="14.00">jug5.empty()</text>
</g>
<!-- S_2&#45;&gt;S_11 -->
<g id="edge28" class="edge">
<title>S_2&#45;&gt;S_11</title>
<path fill="none" stroke="black" d="M917.67,-655.12C926.9,-659.99 935.91,-666.05 943,-673.5 949.34,-680.16 954,-688.92 957.35,-697.33"/>
<polygon fill="black" stroke="black" points="953.96,-698.24 960.55,-706.54 960.58,-695.95 953.96,-698.24"/>
<text text-anchor="middle" x="980.25" y="-676.7" font-family="Times,serif" font-size="14.00">jug5.fill()</text>
</g>
<!-- S_77 -->
<g id="node8" class="node">
<title>S_77</title>
<ellipse fill="none" stroke="black" cx="1447" cy="-106.5" rx="160.37" ry="18"/>
<text text-anchor="middle" x="1447" y="-101.45" font-family="Times,serif" font-size="14.00">jug3(occupancy=3), jug5(occupancy=1)</text>
</g>
<!-- S_77&#45;&gt;S_2 -->
<g id="edge8" class="edge">
<title>S_77&#45;&gt;S_2</title>
<path fill="none" stroke="black" d="M1513.12,-123.27C1541.29,-133.62 1571.42,-150.35 1588,-177 1596.45,-190.59 1591.61,-197.41 1588,-213 1582.58,-236.41 1417.95,-588.11 1398,-601.5 1368.6,-621.23 1182.87,-629.89 1040.13,-633.66"/>
<polygon fill="black" stroke="black" points="1040.05,-630.16 1030.15,-633.92 1040.23,-637.16 1040.05,-630.16"/>
<text text-anchor="middle" x="1559.62" y="-366.95" font-family="Times,serif" font-size="14.00">jug5.empty()</text>
</g>
<!-- S_77&#45;&gt;S_77 -->
<g id="edge17" class="edge">
<title>S_77&#45;&gt;S_77</title>
<path fill="none" stroke="black" d="M1605.29,-109.64C1617.7,-108.95 1625.37,-107.9 1625.37,-106.5 1625.37,-105.6 1622.22,-104.85 1616.7,-104.24"/>
<polygon fill="black" stroke="black" points="1617.04,-100.76 1606.8,-103.47 1616.5,-107.74 1617.04,-100.76"/>
<text text-anchor="middle" x="1651.62" y="-101.45" font-family="Times,serif" font-size="14.00">jug3.fill()</text>
</g>
<!-- S_77&#45;&gt;S_77 -->
<g id="edge72" class="edge">
<title>S_77&#45;&gt;S_77</title>
<path fill="none" stroke="black" d="M1590.74,-114.79C1638.59,-114.65 1677.87,-111.89 1677.87,-106.5 1677.87,-101.54 1644.63,-98.8 1602.05,-98.29"/>
<polygon fill="black" stroke="black" points="1602.27,-94.79 1592.25,-98.22 1602.22,-101.79 1602.27,-94.79"/>
<text text-anchor="middle" x="1725.49" y="-101.45" font-family="Times,serif" font-size="14.00">jug5.addTo(jug3)</text>
</g>
<!-- S_63 -->
<g id="node10" class="node">
<title>S_63</title>
<ellipse fill="none" stroke="black" cx="1216" cy="-195" rx="160.37" ry="18"/>
<text text-anchor="middle" x="1216" y="-189.95" font-family="Times,serif" font-size="14.00">jug3(occupancy=0), jug5(occupancy=1)</text>
</g>
<!-- S_77&#45;&gt;S_63 -->
<g id="edge45" class="edge">
<title>S_77&#45;&gt;S_63</title>
<path fill="none" stroke="black" d="M1386.07,-123.52C1367.19,-128.98 1346.44,-135.49 1327.75,-142.5 1304.75,-151.12 1279.88,-162.38 1259.44,-172.18"/>
<polygon fill="black" stroke="black" points="1258.03,-168.97 1250.56,-176.48 1261.09,-175.27 1258.03,-168.97"/>
<text text-anchor="middle" x="1362.62" y="-145.7" font-family="Times,serif" font-size="14.00">jug3.empty()</text>
</g>
<!-- S_77&#45;&gt;S_11 -->
<g id="edge59" class="edge">
<title>S_77&#45;&gt;S_11</title>
<path fill="none" stroke="black" d="M1538.75,-121.63C1567.42,-131.55 1594.14,-148.4 1604,-177 1674.21,-380.64 1692.55,-517.7 1527,-655.5 1469.1,-703.7 1279.11,-719.09 1135.93,-723.69"/>
<polygon fill="black" stroke="black" points="1136.24,-720.18 1126.35,-723.98 1136.45,-727.18 1136.24,-720.18"/>
<text text-anchor="middle" x="1681.25" y="-411.2" font-family="Times,serif" font-size="14.00">jug5.fill()</text>
</g>
<!-- S_81 -->
<g id="node15" class="node">
<title>S_81</title>
<ellipse fill="none" stroke="black" cx="1852" cy="-18" rx="160.37" ry="18"/>
<text text-anchor="middle" x="1852" y="-12.95" font-family="Times,serif" font-size="14.00">jug3(occupancy=0), jug5(occupancy=4)</text>
</g>
<!-- S_77&#45;&gt;S_81 -->
<g id="edge37" class="edge">
<title>S_77&#45;&gt;S_81</title>
<path fill="none" stroke="black" d="M1519.41,-90.04C1589.31,-75.11 1695.08,-52.52 1768.5,-36.83"/>
<polygon fill="black" stroke="black" points="1769.01,-40.3 1778.06,-34.79 1767.55,-33.46 1769.01,-40.3"/>
<text text-anchor="middle" x="1732.62" y="-57.2" font-family="Times,serif" font-size="14.00">jug3.addTo(jug5)</text>
</g>
<!-- S_5&#45;&gt;S_0 -->
<g id="edge9" class="edge">
<title>S_5&#45;&gt;S_0</title>
<path fill="none" stroke="black" d="M440.65,-36.26C438.97,-47.05 438.85,-60.7 445.75,-70.5 449.42,-75.71 453.97,-80.15 459.06,-83.93"/>
<polygon fill="black" stroke="black" points="457.15,-86.86 467.48,-89.24 460.88,-80.94 457.15,-86.86"/>
<text text-anchor="middle" x="480.62" y="-57.2" font-family="Times,serif" font-size="14.00">jug5.empty()</text>
</g>
<!-- S_5&#45;&gt;S_5 -->
<g id="edge41" class="edge">
<title>S_5&#45;&gt;S_5</title>
<path fill="none" stroke="black" d="M604.7,-20.04C616.28,-19.58 623.37,-18.9 623.37,-18 623.37,-17.45 620.73,-16.98 616.06,-16.6"/>
<polygon fill="black" stroke="black" points="616.39,-13.11 606.21,-16.04 616,-20.1 616.39,-13.11"/>
<text text-anchor="middle" x="658.99" y="-12.95" font-family="Times,serif" font-size="14.00">jug3.empty()</text>
</g>
<!-- S_5&#45;&gt;S_5 -->
<g id="edge62" class="edge">
<title>S_5&#45;&gt;S_5</title>
<path fill="none" stroke="black" d="M598.47,-23.53C650.88,-23.44 694.62,-21.59 694.62,-18 694.62,-14.67 657.14,-12.85 609.98,-12.52"/>
<polygon fill="black" stroke="black" points="610,-9.02 599.98,-12.48 609.97,-16.02 610,-9.02"/>
<text text-anchor="middle" x="720.87" y="-12.95" font-family="Times,serif" font-size="14.00">jug5.fill()</text>
</g>
<!-- S_5&#45;&gt;S_5 -->
<g id="edge79" class="edge">
<title>S_5&#45;&gt;S_5</title>
<path fill="none" stroke="black" d="M589.57,-26.07C668.98,-27.13 747.12,-24.44 747.12,-18 747.12,-11.86 676.13,-9.13 600.72,-9.8"/>
<polygon fill="black" stroke="black" points="601.04,-6.3 591.08,-9.91 601.12,-13.3 601.04,-6.3"/>
<text text-anchor="middle" x="794.74" y="-12.95" font-family="Times,serif" font-size="14.00">jug3.addTo(jug5)</text>
</g>
<!-- S_5&#45;&gt;S_18 -->
<g id="edge43" class="edge">
<title>S_5&#45;&gt;S_18</title>
<path fill="none" stroke="black" d="M291.42,-23.48C176.11,-31.18 38,-51.64 38,-105.5 38,-373 38,-373 38,-373 38,-395.89 30.06,-403.32 38.75,-424.5 42.96,-434.75 49.97,-433.21 56,-442.5 72.01,-467.16 81,-474.35 81,-503.75 81,-727 81,-727 81,-727 81,-761.04 110.35,-781.89 143.09,-794.56"/>
<polygon fill="black" stroke="black" points="141.78,-797.81 152.38,-797.88 144.14,-791.22 141.78,-797.81"/>
<text text-anchor="middle" x="86.62" y="-411.2" font-family="Times,serif" font-size="14.00">jug5.addTo(jug3)</text>
</g>
<!-- S_5&#45;&gt;S_11 -->
<g id="edge30" class="edge">
<title>S_5&#45;&gt;S_11</title>
<path fill="none" stroke="black" d="M361.34,-33.77C351.84,-38.74 343.32,-45.31 337,-54 318.57,-79.34 335.79,-93.19 337,-124.5 341.56,-242.76 340.84,-272.83 357.5,-390 362.29,-423.71 394.28,-667.68 420,-690 420.94,-690.81 654.93,-705.61 815.97,-715.7"/>
<polygon fill="black" stroke="black" points="815.72,-719.19 825.92,-716.32 816.16,-712.2 815.72,-719.19"/>
<text text-anchor="middle" x="384.25" y="-366.95" font-family="Times,serif" font-size="14.00">jug3.fill()</text>
</g>
<!-- S_63&#45;&gt;S_0 -->
<g id="edge11" class="edge">
<title>S_63&#45;&gt;S_0</title>
<path fill="none" stroke="black" d="M1127.32,-179.57C1058.15,-168.59 959.61,-153.53 873,-142.5 806.3,-134 731.92,-126.06 670.31,-119.89"/>
<polygon fill="black" stroke="black" points="670.76,-116.42 660.46,-118.91 670.07,-123.39 670.76,-116.42"/>
<text text-anchor="middle" x="1021.62" y="-145.7" font-family="Times,serif" font-size="14.00">jug5.empty()</text>
</g>
<!-- S_63&#45;&gt;S_77 -->
<g id="edge63" class="edge">
<title>S_63&#45;&gt;S_77</title>
<path fill="none" stroke="black" d="M1334.53,-182.65C1356.84,-177.42 1379.32,-169.87 1399,-159 1410.35,-152.73 1420.54,-142.81 1428.57,-133.35"/>
<polygon fill="black" stroke="black" points="1431.15,-135.73 1434.65,-125.73 1425.68,-131.36 1431.15,-135.73"/>
<text text-anchor="middle" x="1446.25" y="-145.7" font-family="Times,serif" font-size="14.00">jug3.fill()</text>
</g>
<!-- S_63&#45;&gt;S_5 -->
<g id="edge61" class="edge">
<title>S_63&#45;&gt;S_5</title>
<path fill="none" stroke="black" d="M1217.96,-176.94C1220.36,-146.79 1220.33,-84.4 1184,-54 1162.45,-35.97 825.05,-26.24 613.68,-21.88"/>
<polygon fill="black" stroke="black" points="614.04,-18.39 603.97,-21.68 613.9,-25.39 614.04,-18.39"/>
<text text-anchor="middle" x="1242.25" y="-101.45" font-family="Times,serif" font-size="14.00">jug5.fill()</text>
</g>
<!-- S_63&#45;&gt;S_63 -->
<g id="edge14" class="edge">
<title>S_63&#45;&gt;S_63</title>
<path fill="none" stroke="black" d="M1374.29,-198.14C1386.7,-197.45 1394.37,-196.4 1394.37,-195 1394.37,-194.1 1391.22,-193.35 1385.7,-192.74"/>
<polygon fill="black" stroke="black" points="1386.04,-189.26 1375.8,-191.97 1385.5,-196.24 1386.04,-189.26"/>
<text text-anchor="middle" x="1429.99" y="-189.95" font-family="Times,serif" font-size="14.00">jug3.empty()</text>
</g>
<!-- S_63&#45;&gt;S_63 -->
<g id="edge66" class="edge">
<title>S_63&#45;&gt;S_63</title>
<path fill="none" stroke="black" d="M1359.61,-203.29C1416.28,-203.49 1465.62,-200.73 1465.62,-195 1465.62,-189.67 1422.8,-186.9 1371.11,-186.71"/>
<polygon fill="black" stroke="black" points="1371.12,-183.21 1361.12,-186.71 1371.12,-190.21 1371.12,-183.21"/>
<text text-anchor="middle" x="1513.24" y="-189.95" font-family="Times,serif" font-size="14.00">jug3.addTo(jug5)</text>
</g>
<!-- S_63&#45;&gt;S_49 -->
<g id="edge16" class="edge">
<title>S_63&#45;&gt;S_49</title>
<path fill="none" stroke="black" d="M1221.28,-213.45C1223.43,-224.04 1224.15,-237.42 1218,-247.5 1215.28,-251.96 1211.79,-255.87 1207.84,-259.3"/>
<polygon fill="black" stroke="black" points="1205.79,-256.46 1199.77,-265.18 1209.92,-262.12 1205.79,-256.46"/>
<text text-anchor="middle" x="1269.62" y="-234.2" font-family="Times,serif" font-size="14.00">jug5.addTo(jug3)</text>
</g>
<!-- S_49&#45;&gt;S_0 -->
<g id="edge12" class="edge">
<title>S_49&#45;&gt;S_0</title>
<path fill="none" stroke="black" d="M1068.61,-267.6C1012.48,-256 936.75,-237.71 872.75,-213 810.8,-189.08 803.8,-164.11 741,-142.5 715.34,-133.67 687.05,-126.99 659.96,-121.97"/>
<polygon fill="black" stroke="black" points="660.8,-118.57 650.34,-120.26 659.57,-125.46 660.8,-118.57"/>
<text text-anchor="middle" x="907.62" y="-189.95" font-family="Times,serif" font-size="14.00">jug3.empty()</text>
</g>
<!-- S_49&#45;&gt;S_39 -->
<g id="edge26" class="edge">
<title>S_49&#45;&gt;S_39</title>
<path fill="none" stroke="black" d="M1143.12,-301.83C1137.94,-312.91 1129.87,-326.88 1119,-336 1112.51,-341.45 1105.08,-346.1 1097.32,-350.07"/>
<polygon fill="black" stroke="black" points="1095.94,-346.85 1088.36,-354.25 1098.9,-353.19 1095.94,-346.85"/>
<text text-anchor="middle" x="1158.25" y="-322.7" font-family="Times,serif" font-size="14.00">jug5.fill()</text>
</g>
<!-- S_49&#45;&gt;S_2 -->
<g id="edge47" class="edge">
<title>S_49&#45;&gt;S_2</title>
<path fill="none" stroke="black" d="M1241.32,-298.65C1312.73,-312.38 1400,-336.27 1400,-371 1400,-550 1400,-550 1400,-550 1400,-575.25 1396.81,-587.2 1376,-601.5 1348.46,-620.42 1175.38,-629.22 1039.42,-633.23"/>
<polygon fill="black" stroke="black" points="1039.46,-629.73 1029.56,-633.52 1039.66,-636.73 1039.46,-629.73"/>
<text text-anchor="middle" x="1426.25" y="-455.45" font-family="Times,serif" font-size="14.00">jug3.fill()</text>
</g>
<!-- S_49&#45;&gt;S_63 -->
<g id="edge27" class="edge">
<title>S_49&#45;&gt;S_63</title>
<path fill="none" stroke="black" d="M1129.06,-265.44C1119.11,-255.23 1110.93,-242.12 1118.75,-231 1122.43,-225.77 1126.96,-221.32 1132.05,-217.53"/>
<polygon fill="black" stroke="black" points="1133.87,-220.52 1140.45,-212.21 1130.13,-214.6 1133.87,-220.52"/>
<text text-anchor="middle" x="1165.62" y="-234.2" font-family="Times,serif" font-size="14.00">jug3.addTo(jug5)</text>
</g>
<!-- S_49&#45;&gt;S_49 -->
<g id="edge19" class="edge">
<title>S_49&#45;&gt;S_49</title>
<path fill="none" stroke="black" d="M1308.29,-286.64C1320.7,-285.95 1328.37,-284.9 1328.37,-283.5 1328.37,-282.6 1325.22,-281.85 1319.7,-281.24"/>
<polygon fill="black" stroke="black" points="1320.04,-277.76 1309.8,-280.47 1319.5,-284.74 1320.04,-277.76"/>
<text text-anchor="middle" x="1363.99" y="-278.45" font-family="Times,serif" font-size="14.00">jug5.empty()</text>
</g>
<!-- S_49&#45;&gt;S_49 -->
<g id="edge25" class="edge">
<title>S_49&#45;&gt;S_49</title>
<path fill="none" stroke="black" d="M1293.61,-291.79C1350.28,-291.99 1399.62,-289.23 1399.62,-283.5 1399.62,-278.17 1356.8,-275.4 1305.11,-275.21"/>
<polygon fill="black" stroke="black" points="1305.12,-271.71 1295.12,-275.21 1305.12,-278.71 1305.12,-271.71"/>
<text text-anchor="middle" x="1447.24" y="-278.45" font-family="Times,serif" font-size="14.00">jug5.addTo(jug3)</text>
</g>
<!-- S_18&#45;&gt;S_34 -->
<g id="edge65" class="edge">
<title>S_18&#45;&gt;S_34</title>
<path fill="none" stroke="black" d="M173.33,-831.77C165.18,-836.52 157.85,-842.63 152.75,-850.5 147.78,-858.17 149.44,-867.14 153.54,-875.42"/>
<polygon fill="black" stroke="black" points="150.46,-877.08 158.68,-883.76 156.42,-873.41 150.46,-877.08"/>
<text text-anchor="middle" x="188.62" y="-853.7" font-family="Times,serif" font-size="14.00">jug3.empty()</text>
</g>
<!-- S_18&#45;&gt;S_2 -->
<g id="edge56" class="edge">
<title>S_18&#45;&gt;S_2</title>
<path fill="none" stroke="black" d="M290.06,-797.35C408.41,-764.99 674.11,-692.34 800.98,-657.65"/>
<polygon fill="black" stroke="black" points="801.9,-661.02 810.62,-655.01 800.05,-654.27 801.9,-661.02"/>
<text text-anchor="middle" x="649.62" y="-720.95" font-family="Times,serif" font-size="14.00">jug5.empty()</text>
</g>
<!-- S_18&#45;&gt;S_5 -->
<g id="edge18" class="edge">
<title>S_18&#45;&gt;S_5</title>
<path fill="none" stroke="black" d="M202.65,-796.32C181.41,-781.06 156,-756.62 156,-727 156,-727 156,-727 156,-105.5 156,-68.42 244.41,-45.9 323.43,-33.17"/>
<polygon fill="black" stroke="black" points="323.67,-36.68 333.01,-31.67 322.59,-29.76 323.67,-36.68"/>
<text text-anchor="middle" x="203.62" y="-411.2" font-family="Times,serif" font-size="14.00">jug3.addTo(jug5)</text>
</g>
<!-- S_18&#45;&gt;S_18 -->
<g id="edge44" class="edge">
<title>S_18&#45;&gt;S_18</title>
<path fill="none" stroke="black" d="M389.29,-817.64C401.7,-816.95 409.37,-815.9 409.37,-814.5 409.37,-813.6 406.22,-812.85 400.7,-812.24"/>
<polygon fill="black" stroke="black" points="401.04,-808.76 390.8,-811.47 400.5,-815.74 401.04,-808.76"/>
<text text-anchor="middle" x="456.99" y="-809.45" font-family="Times,serif" font-size="14.00">jug5.addTo(jug3)</text>
</g>
<!-- S_18&#45;&gt;S_18 -->
<g id="edge57" class="edge">
<title>S_18&#45;&gt;S_18</title>
<path fill="none" stroke="black" d="M374.88,-822.72C442.14,-823.3 504.62,-820.56 504.62,-814.5 504.62,-808.78 449.02,-806.02 386.25,-806.21"/>
<polygon fill="black" stroke="black" points="386.37,-802.71 376.39,-806.27 386.41,-809.71 386.37,-802.71"/>
<text text-anchor="middle" x="530.87" y="-809.45" font-family="Times,serif" font-size="14.00">jug3.fill()</text>
</g>
<!-- S_18&#45;&gt;S_11 -->
<g id="edge40" class="edge">
<title>S_18&#45;&gt;S_11</title>
<path fill="none" stroke="black" d="M338.91,-800.78C474.31,-784.83 705.76,-757.55 846.12,-741.01"/>
<polygon fill="black" stroke="black" points="846.3,-744.51 855.82,-739.87 845.48,-737.56 846.3,-744.51"/>
<text text-anchor="middle" x="689.25" y="-765.2" font-family="Times,serif" font-size="14.00">jug5.fill()</text>
</g>
<!-- S_56&#45;&gt;S_48 -->
<g id="edge48" class="edge">
<title>S_56&#45;&gt;S_48</title>
<path fill="none" stroke="black" d="M1484.69,-921.38C1473.8,-933.25 1457.7,-948.13 1440,-955.5 1384.73,-978.53 1241.98,-986.79 1125.4,-989.58"/>
<polygon fill="black" stroke="black" points="1125.63,-986.07 1115.72,-989.79 1125.79,-993.07 1125.63,-986.07"/>
<text text-anchor="middle" x="1500.62" y="-942.2" font-family="Times,serif" font-size="14.00">jug5.empty()</text>
</g>
<!-- S_56&#45;&gt;S_5 -->
<g id="edge81" class="edge">
<title>S_56&#45;&gt;S_5</title>
<path fill="none" stroke="black" d="M1623.64,-891.31C1713.49,-880.04 1819,-857.8 1819,-815.5 1819,-815.5 1819,-815.5 1819,-105.5 1819,-36.93 1272.48,-57.56 1204,-54 996.77,-43.22 757.61,-32.48 604.03,-25.79"/>
<polygon fill="black" stroke="black" points="604.31,-22.3 594.17,-25.36 604.01,-29.29 604.31,-22.3"/>
<text text-anchor="middle" x="1854.62" y="-455.45" font-family="Times,serif" font-size="14.00">jug3.empty()</text>
</g>
<!-- S_56&#45;&gt;S_56 -->
<g id="edge20" class="edge">
<title>S_56&#45;&gt;S_56</title>
<path fill="none" stroke="black" d="M1657.29,-906.14C1669.7,-905.45 1677.37,-904.4 1677.37,-903 1677.37,-902.1 1674.22,-901.35 1668.7,-900.74"/>
<polygon fill="black" stroke="black" points="1669.04,-897.26 1658.8,-899.97 1668.5,-904.24 1669.04,-897.26"/>
<text text-anchor="middle" x="1703.62" y="-897.95" font-family="Times,serif" font-size="14.00">jug5.fill()</text>
</g>
<!-- S_56&#45;&gt;S_56 -->
<g id="edge82" class="edge">
<title>S_56&#45;&gt;S_56</title>
<path fill="none" stroke="black" d="M1642.74,-911.29C1690.59,-911.15 1729.87,-908.39 1729.87,-903 1729.87,-898.04 1696.63,-895.3 1654.05,-894.79"/>
<polygon fill="black" stroke="black" points="1654.27,-891.29 1644.25,-894.72 1654.22,-898.29 1654.27,-891.29"/>
<text text-anchor="middle" x="1777.49" y="-897.95" font-family="Times,serif" font-size="14.00">jug3.addTo(jug5)</text>
</g>
<!-- S_56&#45;&gt;S_11 -->
<g id="edge73" class="edge">
<title>S_56&#45;&gt;S_11</title>
<path fill="none" stroke="black" d="M1476.3,-884.91C1458.04,-871.04 1431.85,-850.85 1409.5,-832.5 1390.63,-817.01 1390.06,-806.96 1368,-796.5 1292.18,-760.56 1200.47,-742.99 1123.7,-734.49"/>
<polygon fill="black" stroke="black" points="1124.31,-731.03 1114,-733.46 1123.57,-737.99 1124.31,-731.03"/>
<text text-anchor="middle" x="1435.25" y="-809.45" font-family="Times,serif" font-size="14.00">jug3.fill()</text>
</g>
<!-- S_72 -->
<g id="node16" class="node">
<title>S_72</title>
<ellipse fill="none" stroke="black" cx="1631" cy="-814.5" rx="160.37" ry="18"/>
<text text-anchor="middle" x="1631" y="-809.45" font-family="Times,serif" font-size="14.00">jug3(occupancy=3), jug5(occupancy=4)</text>
</g>
<!-- S_56&#45;&gt;S_72 -->
<g id="edge42" class="edge">
<title>S_56&#45;&gt;S_72</title>
<path fill="none" stroke="black" d="M1525.08,-884.91C1545.24,-871.7 1573.35,-853.28 1595.55,-838.73"/>
<polygon fill="black" stroke="black" points="1597.26,-841.79 1603.71,-833.38 1593.43,-835.94 1597.26,-841.79"/>
<text text-anchor="middle" x="1623.62" y="-853.7" font-family="Times,serif" font-size="14.00">jug5.addTo(jug3)</text>
</g>
<!-- S_11&#45;&gt;S_2 -->
<g id="edge84" class="edge">
<title>S_11&#45;&gt;S_2</title>
<path fill="none" stroke="black" d="M890.73,-709.6C881.72,-704.74 873.63,-698.37 867.75,-690 863.11,-683.4 862.14,-675.07 862.82,-667.05"/>
<polygon fill="black" stroke="black" points="866.27,-667.69 864.53,-657.24 859.37,-666.49 866.27,-667.69"/>
<text text-anchor="middle" x="902.62" y="-676.7" font-family="Times,serif" font-size="14.00">jug5.empty()</text>
</g>
<!-- S_11&#45;&gt;S_5 -->
<g id="edge52" class="edge">
<title>S_11&#45;&gt;S_5</title>
<path fill="none" stroke="black" d="M828.18,-716.29C727.51,-701.71 597.71,-663.9 535,-567 420.96,-390.79 399.07,-332.37 370,-124.5 367.78,-108.65 363.6,-103.16 370,-88.5 377.94,-70.31 393.25,-54.76 407.98,-43"/>
<polygon fill="black" stroke="black" points="409.92,-45.92 415.79,-37.1 405.7,-40.33 409.92,-45.92"/>
<text text-anchor="middle" x="468.62" y="-366.95" font-family="Times,serif" font-size="14.00">jug3.empty()</text>
</g>
<!-- S_11&#45;&gt;S_11 -->
<g id="edge22" class="edge">
<title>S_11&#45;&gt;S_11</title>
<path fill="none" stroke="black" d="M1125.25,-727.51C1136.5,-727.17 1143.37,-726.66 1143.37,-726 1143.37,-725.61 1140.95,-725.27 1136.63,-724.99"/>
<polygon fill="black" stroke="black" points="1136.91,-721.49 1126.76,-724.55 1136.6,-728.49 1136.91,-721.49"/>
<text text-anchor="middle" x="1169.62" y="-720.95" font-family="Times,serif" font-size="14.00">jug3.fill()</text>
</g>
<!-- S_11&#45;&gt;S_11 -->
<g id="edge31" class="edge">
<title>S_11&#45;&gt;S_11</title>
<path fill="none" stroke="black" d="M1121.73,-730.09C1163.5,-729.81 1195.87,-728.45 1195.87,-726 1195.87,-723.78 1169.28,-722.45 1133.21,-722.01"/>
<polygon fill="black" stroke="black" points="1133.27,-718.52 1123.24,-721.92 1133.21,-725.51 1133.27,-718.52"/>
<text text-anchor="middle" x="1222.12" y="-720.95" font-family="Times,serif" font-size="14.00">jug5.fill()</text>
</g>
<!-- S_11&#45;&gt;S_11 -->
<g id="edge35" class="edge">
<title>S_11&#45;&gt;S_11</title>
<path fill="none" stroke="black" d="M1116.61,-732.17C1185.44,-732.58 1248.37,-730.52 1248.37,-726 1248.37,-721.73 1192.14,-719.65 1127.84,-719.78"/>
<polygon fill="black" stroke="black" points="1128.11,-716.28 1118.12,-719.82 1128.14,-723.28 1128.11,-716.28"/>
<text text-anchor="middle" x="1295.99" y="-720.95" font-family="Times,serif" font-size="14.00">jug3.addTo(jug5)</text>
</g>
<!-- S_11&#45;&gt;S_11 -->
<g id="edge60" class="edge">
<title>S_11&#45;&gt;S_11</title>
<path fill="none" stroke="black" d="M1111.32,-733.65C1220.4,-735.63 1343.62,-733.08 1343.62,-726 1343.62,-719.17 1228.68,-716.55 1122.55,-718.16"/>
<polygon fill="black" stroke="black" points="1122.77,-714.66 1112.83,-718.33 1122.89,-721.66 1122.77,-714.66"/>
<text text-anchor="middle" x="1391.24" y="-720.95" font-family="Times,serif" font-size="14.00">jug5.addTo(jug3)</text>
</g>
</g>
</svg>
