<?xml version="1.0" encoding="UTF-8" standalone="no"?>
<!DOCTYPE svg PUBLIC "-//W3C//DTD SVG 1.1//EN"
 "http://www.w3.org/Graphics/SVG/1.1/DTD/svg11.dtd">
<!-- Generated by graphviz version 9.0.0 (20230911.1827)
 -->
<!-- Title: G Pages: 1 -->
<svg width="321pt" height="575pt"
 viewBox="0.00 0.00 320.54 575.00" xmlns="http://www.w3.org/2000/svg" xmlns:xlink="http://www.w3.org/1999/xlink">
<g id="graph0" class="graph" transform="scale(1 1) rotate(0) translate(4 571)">
<title>G</title>
<polygon fill="white" stroke="none" points="-4,4 -4,-571 316.54,-571 316.54,4 -4,4"/>
<!-- S_0 -->
<g id="node1" class="node">
<title>S_0</title>
<ellipse fill="none" stroke="black" cx="156.27" cy="-549" rx="156.27" ry="18"/>
<text text-anchor="middle" x="156.27" y="-543.95" font-family="Times,serif" font-size="14.00">jar3(occupancy=0), jar5(occupancy=0)</text>
</g>
<!-- S_5 -->
<g id="node2" class="node">
<title>S_5</title>
<ellipse fill="none" stroke="black" cx="156.27" cy="-460.5" rx="156.27" ry="18"/>
<text text-anchor="middle" x="156.27" y="-455.45" font-family="Times,serif" font-size="14.00">jar3(occupancy=0), jar5(occupancy=5)</text>
</g>
<!-- S_0&#45;&gt;S_5 -->
<g id="edge1" class="edge">
<title>S_0&#45;&gt;S_5</title>
<path fill="none" stroke="black" d="M156.27,-530.91C156.27,-519.26 156.27,-503.55 156.27,-490.02"/>
<polygon fill="black" stroke="black" points="159.77,-490.36 156.27,-480.36 152.77,-490.36 159.77,-490.36"/>
<text text-anchor="middle" x="181.02" y="-499.7" font-family="Times,serif" font-size="14.00">jar5.fill()</text>
</g>
<!-- S_18 -->
<g id="node3" class="node">
<title>S_18</title>
<ellipse fill="none" stroke="black" cx="156.27" cy="-372" rx="156.27" ry="18"/>
<text text-anchor="middle" x="156.27" y="-366.95" font-family="Times,serif" font-size="14.00">jar3(occupancy=3), jar5(occupancy=2)</text>
</g>
<!-- S_5&#45;&gt;S_18 -->
<g id="edge2" class="edge">
<title>S_5&#45;&gt;S_18</title>
<path fill="none" stroke="black" d="M156.27,-442.41C156.27,-430.76 156.27,-415.05 156.27,-401.52"/>
<polygon fill="black" stroke="black" points="159.77,-401.86 156.27,-391.86 152.77,-401.86 159.77,-401.86"/>
<text text-anchor="middle" x="200.9" y="-411.2" font-family="Times,serif" font-size="14.00">jar5.addTo(jar3)</text>
</g>
<!-- S_34 -->
<g id="node4" class="node">
<title>S_34</title>
<ellipse fill="none" stroke="black" cx="156.27" cy="-283.5" rx="156.27" ry="18"/>
<text text-anchor="middle" x="156.27" y="-278.45" font-family="Times,serif" font-size="14.00">jar3(occupancy=0), jar5(occupancy=2)</text>
</g>
<!-- S_18&#45;&gt;S_34 -->
<g id="edge3" class="edge">
<title>S_18&#45;&gt;S_34</title>
<path fill="none" stroke="black" d="M156.27,-353.91C156.27,-342.26 156.27,-326.55 156.27,-313.02"/>
<polygon fill="black" stroke="black" points="159.77,-313.36 156.27,-303.36 152.77,-313.36 159.77,-313.36"/>
<text text-anchor="middle" x="190.4" y="-322.7" font-family="Times,serif" font-size="14.00">jar3.empty()</text>
</g>
<!-- S_48 -->
<g id="node5" class="node">
<title>S_48</title>
<ellipse fill="none" stroke="black" cx="156.27" cy="-195" rx="156.27" ry="18"/>
<text text-anchor="middle" x="156.27" y="-189.95" font-family="Times,serif" font-size="14.00">jar3(occupancy=2), jar5(occupancy=0)</text>
</g>
<!-- S_34&#45;&gt;S_48 -->
<g id="edge4" class="edge">
<title>S_34&#45;&gt;S_48</title>
<path fill="none" stroke="black" d="M156.27,-265.41C156.27,-253.76 156.27,-238.05 156.27,-224.52"/>
<polygon fill="black" stroke="black" points="159.77,-224.86 156.27,-214.86 152.77,-224.86 159.77,-224.86"/>
<text text-anchor="middle" x="200.9" y="-234.2" font-family="Times,serif" font-size="14.00">jar5.addTo(jar3)</text>
</g>
<!-- S_56 -->
<g id="node6" class="node">
<title>S_56</title>
<ellipse fill="none" stroke="black" cx="156.27" cy="-106.5" rx="156.27" ry="18"/>
<text text-anchor="middle" x="156.27" y="-101.45" font-family="Times,serif" font-size="14.00">jar3(occupancy=2), jar5(occupancy=5)</text>
</g>
<!-- S_48&#45;&gt;S_56 -->
<g id="edge5" class="edge">
<title>S_48&#45;&gt;S_56</title>
<path fill="none" stroke="black" d="M156.27,-176.91C156.27,-165.26 156.27,-149.55 156.27,-136.02"/>
<polygon fill="black" stroke="black" points="159.77,-136.36 156.27,-126.36 152.77,-136.36 159.77,-136.36"/>
<text text-anchor="middle" x="181.02" y="-145.7" font-family="Times,serif" font-size="14.00">jar5.fill()</text>
</g>
<!-- S_72 -->
<g id="node7" class="node">
<title>S_72</title>
<ellipse fill="none" stroke="black" cx="156.27" cy="-18" rx="156.27" ry="18"/>
<text text-anchor="middle" x="156.27" y="-12.95" font-family="Times,serif" font-size="14.00">jar3(occupancy=3), jar5(occupancy=4)</text>
</g>
<!-- S_56&#45;&gt;S_72 -->
<g id="edge6" class="edge">
<title>S_56&#45;&gt;S_72</title>
<path fill="none" stroke="black" d="M156.27,-88.41C156.27,-76.76 156.27,-61.05 156.27,-47.52"/>
<polygon fill="black" stroke="black" points="159.77,-47.86 156.27,-37.86 152.77,-47.86 159.77,-47.86"/>
<text text-anchor="middle" x="200.9" y="-57.2" font-family="Times,serif" font-size="14.00">jar5.addTo(jar3)</text>
</g>
</g>
</svg>
